<svg width="280" height="400" viewBox="0 0 280 400" xmlns="http://www.w3.org/2000/svg">
<path d="M182.256 169.727C182.604 163.385 187.831 158.367 194.243 158.367C195.707 158.367 197.101 158.645 198.355 159.133H198.425C198.425 159.133 198.425 159.133 198.495 159.133C199.54 159.621 200.585 160.248 201.561 160.806C209.437 165.824 214.524 174.536 216.336 184.572C216.824 187.15 217.033 189.799 217.033 192.517V192.726C217.033 192.865 217.033 193.005 217.033 193.144C217.033 205.41 202.816 214.47 196.683 214.47C190.062 214.47 192.849 197.465 192.849 190.844C192.849 190.635 192.849 190.496 192.849 190.287C187.413 184.781 182.953 177.393 182.395 171.539C182.395 171.4 182.395 171.26 182.326 171.121C182.326 170.842 182.326 170.563 182.326 170.284C182.256 170.215 182.256 170.006 182.256 169.727Z" fill="#F47171"/>
<path d="M91.1647 169.727C90.8162 163.385 85.5892 158.367 79.1773 158.367C77.7137 158.367 76.3199 158.645 75.0654 159.133H74.9957C74.9957 159.133 74.9957 159.133 74.926 159.133C73.8806 159.621 72.8352 160.248 71.8594 160.806C64.0537 165.963 58.8963 174.605 57.154 184.711C56.6661 187.22 56.457 189.868 56.457 192.587V192.796C56.457 192.935 56.457 193.074 56.457 193.214C56.457 205.48 70.6746 214.54 76.8077 214.54C83.4287 214.54 80.6409 197.535 80.6409 190.914C80.6409 190.705 80.6409 190.565 80.6409 190.356C86.077 184.85 90.5375 177.463 91.095 171.609C91.095 171.469 91.095 171.33 91.1647 171.19C91.1647 170.912 91.1647 170.633 91.1647 170.354C91.1647 170.215 91.1647 170.006 91.1647 169.727Z" fill="#F47171"/>
<path d="M198.288 192.238C198.288 193.283 198.218 277.125 198.218 277.125H198.148C198.148 289.322 188.252 299.218 176.055 299.218C167.065 299.218 159.329 293.852 155.844 286.116C152.429 293.294 145.181 298.243 136.748 298.243C128.315 298.243 121.067 293.294 117.651 286.116C114.236 293.852 106.5 299.218 97.4402 299.218C85.2437 299.218 75.2775 289.252 75.2775 277.056C75.2775 277.056 75.2078 193.213 75.2078 192.168C75.2078 155.021 103.085 128.398 136.748 128.398C170.41 128.468 198.288 155.091 198.288 192.238Z" fill="#F47171"/>
<path d="M198.288 192.238C198.288 193.283 198.218 277.125 198.218 277.125H198.148C198.148 289.322 188.252 299.218 176.055 299.218C167.065 299.218 159.329 293.852 155.844 286.116C152.429 293.294 145.181 298.243 136.748 298.243C128.315 298.243 121.067 293.294 117.651 286.116C114.236 293.852 106.5 299.218 97.4402 299.218C85.2437 299.218 75.2775 289.252 75.2775 277.056C75.2775 277.056 75.2078 193.213 75.2078 192.168C75.2078 155.021 103.085 128.398 136.748 128.398C170.41 128.468 198.288 155.091 198.288 192.238Z" fill="#F47171"/>
<path opacity="0.1" d="M198.214 253.084C198.144 265.281 188.247 275.178 176.051 275.178C170.406 275.178 165.248 273.017 161.345 269.532C158.209 266.675 153.54 266.605 150.264 269.323C146.57 272.32 141.901 274.202 136.813 274.202C131.725 274.202 126.986 272.39 123.362 269.323C120.087 266.605 115.417 266.675 112.281 269.532C108.378 273.017 103.221 275.178 97.5753 275.178C85.3788 275.178 75.4823 265.281 75.4823 253.084L75.2732 262.354V277.059C75.2732 289.256 85.1698 299.152 97.3662 299.152C106.357 299.152 114.093 293.786 117.578 286.05C120.993 293.228 128.241 298.177 136.674 298.177C145.107 298.177 152.425 293.228 155.77 286.05C159.185 293.786 166.991 299.152 175.981 299.152C188.178 299.152 198.074 289.256 198.074 277.059L198.214 253.084Z" fill="#4B194E"/>
<path d="M157.304 192.918C164.425 192.918 170.197 187.145 170.197 180.024C170.197 172.903 164.425 167.131 157.304 167.131C150.183 167.131 144.411 172.903 144.411 180.024C144.411 187.145 150.183 192.918 157.304 192.918Z" fill="white"/>
<path d="M157.303 188.177C161.806 188.177 165.457 184.526 165.457 180.022C165.457 175.519 161.806 171.868 157.303 171.868C152.799 171.868 149.149 175.519 149.149 180.022C149.149 184.526 152.799 188.177 157.303 188.177Z" fill="#491249"/>
<path d="M116.114 192.918C123.235 192.918 129.008 187.145 129.008 180.024C129.008 172.903 123.235 167.131 116.114 167.131C108.993 167.131 103.221 172.903 103.221 180.024C103.221 187.145 108.993 192.918 116.114 192.918Z" fill="white"/>
<path d="M116.113 188.177C120.616 188.177 124.267 184.526 124.267 180.022C124.267 175.519 120.616 171.868 116.113 171.868C111.61 171.868 107.959 175.519 107.959 180.022C107.959 184.526 111.61 188.177 116.113 188.177Z" fill="#491249"/>
<path d="M136.745 190.355C137.938 190.355 138.906 189.388 138.906 188.195C138.906 187.001 137.938 186.034 136.745 186.034C135.552 186.034 134.584 187.001 134.584 188.195C134.584 189.388 135.552 190.355 136.745 190.355Z" fill="#491249"/>
<path d="M146.5 198.785C145.663 197.74 144.827 196.555 143.154 196.555C139.948 196.555 139.948 200.597 136.743 200.597C133.537 200.597 133.537 196.555 130.331 196.555C128.658 196.555 127.822 197.67 126.985 198.785" stroke="#491249" stroke-width="3.14641" stroke-miterlimit="10" stroke-linecap="round" stroke-linejoin="round"/>
<path d="M55.878 108.184L45.6525 118.442C43.8324 120.234 44.6198 123.301 47.0312 124.103L64.3639 129.807C65.8206 130.312 67.1821 128.918 66.7956 127.485L61.6267 109.682C60.9172 107.137 57.7327 106.309 55.878 108.184Z" fill="#FF9F99"/>
<path d="M224.069 131.664L212.806 115.944C210.809 113.184 206.612 113.498 205.007 116.446L193.739 137.915C192.801 139.728 194.21 141.868 196.232 141.645L220.891 138.877C224.364 138.469 226.154 134.447 224.069 131.664Z" fill="#FF9F99"/>
<path d="M177.264 115.551L172.162 114.919C170.942 114.751 169.69 115.324 169.043 116.407L166.365 120.867C165.027 123.098 161.754 122.86 160.737 120.447L158.767 115.665C158.323 114.503 157.154 113.703 155.909 113.709L150.735 113.599C148.18 113.567 146.712 110.559 148.31 108.506L151.507 104.401C152.284 103.407 152.367 102.034 151.769 100.957L149.273 96.3868C148.057 94.1239 149.926 91.3984 152.432 91.7794L157.534 92.4116C158.755 92.5798 160.007 92.0066 160.654 90.9239L163.331 86.4631C164.67 84.2327 167.942 84.4707 168.96 86.8837L170.93 91.6654C171.374 92.8275 172.543 93.6279 173.788 93.6219L178.962 93.7313C181.516 93.7637 182.985 96.7717 181.386 98.8242L178.189 102.929C177.412 103.923 177.329 105.297 177.927 106.373L180.404 110.834C181.684 113.142 179.815 115.867 177.264 115.551Z" fill="#F47171"/>
</svg>