<svg width="375" height="702" viewBox="0 0 375 702" xmlns="http://www.w3.org/2000/svg">
<path d="M10.3183 398.28C26.6703 391.794 34.6683 373.281 28.1825 356.929C21.6967 340.577 3.18305 332.579 -13.1689 339.064C-29.5208 345.55 -37.5189 364.064 -31.0331 380.416C-24.5473 396.768 -6.03361 404.766 10.3183 398.28Z" fill="#E1BFF7" stroke="#FBF5FF" stroke-width="6.6847"/>
<path d="M11.2845 358.128C11.3307 357.653 11.2242 357.176 10.981 356.766C10.6933 356.303 10.2506 355.958 9.73185 355.791C9.2131 355.625 8.65205 355.648 8.14891 355.857L1.66477 358.429C1.15523 358.622 0.730672 358.989 0.467014 359.466C0.203355 359.943 0.117723 360.498 0.225305 361.032C0.327484 361.498 0.577891 361.919 0.938824 362.232C1.17964 362.442 1.36671 362.707 1.48458 363.004C1.60246 363.301 1.64774 363.622 1.61654 363.94C1.56873 364.416 1.67485 364.893 1.91958 365.303C2.20791 365.765 2.65065 366.109 3.16897 366.275C3.6873 366.44 4.24759 366.416 4.75005 366.208L11.2258 363.639C11.7348 363.447 12.1591 363.08 12.423 362.604C12.6869 362.128 12.7733 361.574 12.667 361.041C12.562 360.575 12.3121 360.155 11.9534 359.84C11.7118 359.63 11.5251 359.365 11.4085 359.067C11.292 358.769 11.2494 358.447 11.2845 358.128Z" fill="#491249"/>
<path d="M2.11401 377.62L1.58423 377.83C-1.45162 378.9 -4.66659 378.87 -6.97584 377.735C-7.24709 377.602 -7.48934 377.416 -7.68888 377.19C-7.88843 376.963 -8.04158 376.699 -8.13896 376.413C-8.23634 376.127 -8.27603 375.824 -8.25638 375.523C-8.23672 375.221 -8.15805 374.927 -8.02436 374.656C-7.75523 374.109 -7.28008 373.692 -6.70346 373.496C-6.12683 373.299 -5.49568 373.34 -4.94907 373.609C-4.04668 374.052 -2.20684 374.291 0.056812 373.492C2.49045 372.636 3.88916 371.127 4.1456 370.091C4.22175 369.798 4.35467 369.523 4.53715 369.282C4.71964 369.041 4.94787 368.839 5.2088 368.686C5.46973 368.534 5.75848 368.434 6.05799 368.393C6.35749 368.352 6.66209 368.37 6.95441 368.447C7.24696 368.524 7.52153 368.657 7.76253 368.839C8.00353 369.022 8.20607 369.25 8.3587 369.511C8.51134 369.772 8.61101 370.06 8.65195 370.36C8.69289 370.659 8.6746 370.964 8.5976 371.256C7.91241 373.891 5.44584 376.298 2.11401 377.62Z" fill="white"/>
<path d="M5.74475 359.555L5.49696 359.653C5.34885 359.711 5.18442 359.707 5.03882 359.643C4.89323 359.58 4.77839 359.461 4.71982 359.314L4.62154 359.066C4.56267 358.918 4.44723 358.799 4.30066 358.735C4.1541 358.672 3.98859 358.669 3.84018 358.728C3.69296 358.788 3.57528 358.903 3.51283 359.05C3.45039 359.196 3.44834 359.36 3.50692 359.508L3.6052 359.756C3.66407 359.904 3.66152 360.07 3.5982 360.217C3.53488 360.363 3.41572 360.479 3.26731 360.537L3.01952 360.636C2.87185 360.694 2.75328 360.809 2.68972 360.954C2.62616 361.1 2.62295 361.265 2.68039 361.413C2.73926 361.561 2.8547 361.68 3.00127 361.744C3.14783 361.807 3.31334 361.81 3.46175 361.751L3.70953 361.652C3.85794 361.594 4.02382 361.596 4.17039 361.659C4.31695 361.723 4.43244 361.842 4.49131 361.99L4.58954 362.238C4.64796 362.385 4.76256 362.503 4.90801 362.566C5.05346 362.629 5.21776 362.631 5.36503 362.573C5.51271 362.514 5.63127 362.4 5.69483 362.254C5.75839 362.108 5.76161 361.944 5.70416 361.796L5.60592 361.548C5.57629 361.475 5.56165 361.396 5.56238 361.318C5.56312 361.239 5.57952 361.161 5.6105 361.088C5.64149 361.016 5.68646 360.95 5.74294 360.895C5.79942 360.84 5.8659 360.797 5.93918 360.768L6.18697 360.67C6.33538 360.611 6.4545 360.495 6.51782 360.349C6.58114 360.202 6.58369 360.036 6.52482 359.888C6.49576 359.815 6.45261 359.748 6.3976 359.691C6.34259 359.635 6.2766 359.59 6.20411 359.559C6.13162 359.528 6.05387 359.512 5.97504 359.511C5.8962 359.51 5.8178 359.525 5.74475 359.555Z" fill="white"/>
<path d="M9.96841 361.092L9.81031 361.155C9.76263 361.174 9.71173 361.183 9.66044 361.182C9.60915 361.182 9.55829 361.171 9.5112 361.151C9.46411 361.13 9.42175 361.101 9.38604 361.064C9.35032 361.027 9.32232 360.983 9.30341 360.936L9.2407 360.778C9.2025 360.681 9.12759 360.604 9.03249 360.563C8.93739 360.522 8.82967 360.521 8.73337 360.559C8.63708 360.597 8.56006 360.672 8.51898 360.767C8.4779 360.862 8.47625 360.969 8.51445 361.066L8.57715 361.224C8.61535 361.32 8.6137 361.428 8.57262 361.523C8.53154 361.618 8.4541 361.693 8.35781 361.731L8.19554 361.795C8.09924 361.834 8.02227 361.908 7.98118 362.003C7.9401 362.099 7.93845 362.206 7.97665 362.302C8.01484 362.399 8.08976 362.476 8.18486 362.517C8.27996 362.558 8.3873 362.56 8.4836 362.522L8.64587 362.457C8.74216 362.419 8.84988 362.421 8.94498 362.462C9.04008 362.503 9.115 362.58 9.15319 362.676L9.2176 362.839C9.25579 362.935 9.33067 363.012 9.42577 363.053C9.52086 363.094 9.62821 363.096 9.7245 363.058C9.8208 363.019 9.89819 362.944 9.93927 362.849C9.98036 362.754 9.98204 362.647 9.94385 362.55L9.87944 362.388C9.86053 362.34 9.85111 362.29 9.85188 362.238C9.85265 362.187 9.86322 362.136 9.88356 362.089C9.9039 362.042 9.93361 362 9.97043 361.964C10.0072 361.928 10.0507 361.9 10.0984 361.881L10.2565 361.818C10.3528 361.78 10.4297 361.705 10.4708 361.61C10.5119 361.515 10.5136 361.408 10.4754 361.311C10.4372 361.215 10.3622 361.138 10.2671 361.097C10.172 361.056 10.0647 361.054 9.96841 361.092Z" fill="white"/>
<path d="M42.2474 183.909C57.0551 181.015 66.7132 166.665 63.8192 151.857C60.9252 137.049 46.5751 127.391 31.7674 130.285C16.9596 133.179 7.3016 147.529 10.1956 162.337C13.0895 177.145 27.4396 186.803 42.2474 183.909Z" fill="#E1BFF7" stroke="#FBF5FF" stroke-width="6.6847"/>
<path d="M57.4159 175.082C57.2857 175.105 57.1529 175.105 57.0225 175.085C56.719 175.036 56.4476 174.868 56.2674 174.619C56.0873 174.37 56.0132 174.06 56.0619 173.756L59.6113 153.232C59.6354 153.081 59.6889 152.936 59.769 152.806C59.849 152.677 59.9541 152.564 60.0778 152.474C60.2016 152.385 60.3417 152.321 60.4902 152.286C60.6388 152.251 60.793 152.246 60.9436 152.27C61.0941 152.295 61.2381 152.349 61.3677 152.429C61.4972 152.509 61.6099 152.614 61.6988 152.738C61.7877 152.862 61.8512 153.002 61.8859 153.151C61.9206 153.299 61.9257 153.453 61.9009 153.603L58.3511 174.124C58.3135 174.361 58.2032 174.58 58.0358 174.752C57.8683 174.924 57.6517 175.039 57.4159 175.082Z" fill="#FBC303"/>
<path d="M63.5718 140.493L64.473 143.432C64.5078 143.547 64.5709 143.653 64.6564 143.738C64.7418 143.824 64.8469 143.887 64.9627 143.923L67.8995 144.845C68.0323 144.887 68.1509 144.965 68.2416 145.071C68.3323 145.176 68.3917 145.305 68.4128 145.443C68.434 145.581 68.4163 145.722 68.3615 145.85C68.3068 145.978 68.2171 146.088 68.103 146.168L65.5888 147.931C65.4896 148 65.4086 148.092 65.3534 148.2C65.2982 148.308 65.2704 148.427 65.2722 148.548L65.3011 151.618C65.303 151.758 65.2657 151.895 65.1933 152.015C65.1208 152.134 65.0162 152.231 64.8914 152.294C64.7666 152.357 64.6265 152.384 64.4873 152.371C64.348 152.358 64.2153 152.307 64.104 152.222L61.6486 150.379C61.5527 150.305 61.4405 150.256 61.3212 150.236C61.2019 150.216 61.0795 150.226 60.9648 150.264L58.0501 151.228C57.9181 151.272 57.7765 151.278 57.6411 151.246C57.5057 151.214 57.3818 151.144 57.2839 151.045C57.1859 150.946 57.1175 150.822 57.0865 150.686C57.0554 150.551 57.0632 150.409 57.1084 150.278L58.1149 147.368C58.1541 147.254 58.1651 147.132 58.1466 147.012C58.1281 146.893 58.0808 146.78 58.0089 146.684L56.1791 144.214C56.0968 144.102 56.0477 143.969 56.0368 143.83C56.026 143.692 56.0542 143.553 56.1181 143.429C56.182 143.306 56.2793 143.203 56.3987 143.132C56.5181 143.06 56.6548 143.024 56.7938 143.026L59.8635 143.076C59.9845 143.078 60.1039 143.051 60.2119 142.996C60.3199 142.941 60.4131 142.861 60.4832 142.762L62.2664 140.26C62.3495 140.151 62.4609 140.067 62.5886 140.017C62.7163 139.968 62.8552 139.954 62.9901 139.978C63.125 140.002 63.2506 140.063 63.3532 140.154C63.4558 140.245 63.5314 140.362 63.5718 140.493Z" fill="#FBC303"/>
<path d="M59.8652 171.354C63.2588 170.691 65.4721 167.402 64.8089 164.008C64.1457 160.615 60.857 158.402 57.4634 159.065C54.0699 159.728 51.8565 163.017 52.5197 166.41C53.1829 169.804 56.4716 172.017 59.8652 171.354Z" fill="#C096E2"/>
<path d="M28.3618 162.929C31.6485 162.287 33.7922 159.102 33.1498 155.815C32.5075 152.528 29.3224 150.385 26.0356 151.027C22.7489 151.669 20.6052 154.854 21.2475 158.141C21.8899 161.428 25.075 163.572 28.3618 162.929Z" fill="white"/>
<path d="M27.934 160.741C30.012 160.334 31.3674 158.321 30.9613 156.243C30.5551 154.165 28.5413 152.809 26.4633 153.215C24.3853 153.621 23.0299 155.635 23.436 157.713C23.8422 159.791 25.856 161.147 27.934 160.741Z" fill="#491249"/>
<path d="M47.2128 159.245C50.4996 158.603 52.6433 155.418 52.0009 152.131C51.3586 148.844 48.1734 146.7 44.8867 147.343C41.6 147.985 39.4563 151.17 40.0986 154.457C40.741 157.744 43.9261 159.887 47.2128 159.245Z" fill="white"/>
<path d="M46.7846 157.056C48.8626 156.65 50.218 154.636 49.8119 152.558C49.4057 150.48 47.3919 149.125 45.3139 149.531C43.2358 149.937 41.8805 151.951 42.2866 154.029C42.6927 156.107 44.7065 157.462 46.7846 157.056Z" fill="#491249"/>
<path d="M37.5781 160.014C38.1248 159.908 38.4814 159.378 38.3746 158.831C38.2677 158.284 37.7379 157.928 37.1911 158.035C36.6444 158.141 36.2878 158.671 36.3946 159.218C36.5015 159.765 37.0313 160.121 37.5781 160.014Z" fill="#491249"/>
<path d="M41.9921 161.345C41.6606 163.296 38.1201 165.008 36.2058 163.756" stroke="#491249" stroke-width="1.30241" stroke-linecap="round" stroke-linejoin="round"/>
<path d="M354.413 299.5C372.252 304.001 390.363 293.188 394.864 275.349C399.365 257.51 388.552 239.399 370.713 234.898C352.873 230.397 334.763 241.21 330.262 259.049C325.761 276.888 336.574 294.999 354.413 299.5Z" fill="#E1BFF7" stroke="#FBF5FF" stroke-width="6.6847"/>
<path d="M365.554 274.501C364.915 274.967 364.185 275.295 363.413 275.466C362.64 275.636 361.84 275.644 361.064 275.49C360.211 275.32 359.409 274.958 358.717 274.431C358.026 273.905 357.463 273.227 357.073 272.45" stroke="#491249" stroke-width="1.62801" stroke-linecap="round" stroke-linejoin="round"/>
<path d="M372.96 275.063C377.018 276.087 381.139 273.627 382.163 269.568C383.187 265.509 380.727 261.389 376.668 260.365C372.609 259.34 368.489 261.801 367.465 265.86C366.44 269.919 368.901 274.039 372.96 275.063Z" fill="white"/>
<path d="M373.642 272.362C376.208 273.009 378.813 271.454 379.461 268.887C380.108 266.321 378.553 263.716 375.986 263.068C373.42 262.421 370.815 263.976 370.167 266.543C369.52 269.109 371.075 271.714 373.642 272.362Z" fill="#491249"/>
<path d="M361.694 270.647C362.369 270.817 363.055 270.408 363.225 269.733C363.395 269.057 362.986 268.372 362.311 268.202C361.636 268.031 360.95 268.44 360.78 269.116C360.61 269.791 361.019 270.476 361.694 270.647Z" fill="#491249"/>
<path d="M356.713 265.723C356.354 264.393 355.646 263.183 354.664 262.217C353.682 261.251 352.46 260.564 351.124 260.227C349.271 259.757 347.31 259.99 345.618 260.881" stroke="#491249" stroke-width="1.62801" stroke-linecap="round" stroke-linejoin="round"/>
<path d="M334.569 285.262C334.676 285.354 334.77 285.452 334.883 285.54C334.995 285.629 335.109 285.707 335.219 285.785C335.329 285.862 335.445 285.957 335.561 286.031C335.677 286.105 335.772 286.223 335.893 286.294C336.015 286.364 336.185 286.342 336.31 286.399C336.435 286.455 336.511 286.629 336.637 286.686C336.762 286.742 336.905 286.788 337.032 286.835C337.16 286.882 337.309 286.905 337.445 286.939C337.58 286.973 337.69 287.091 337.825 287.13C337.959 287.169 338.093 287.232 338.229 287.267C338.364 287.301 338.518 287.265 338.652 287.289C338.785 287.312 338.928 287.358 339.064 287.393C339.2 287.427 339.348 287.37 339.486 287.379C339.623 287.389 339.762 287.449 339.905 287.455C340.048 287.461 340.184 287.476 340.323 287.476C340.463 287.477 340.605 287.483 340.747 287.474C340.889 287.465 341.024 287.404 341.162 287.389C341.301 287.374 341.432 287.288 341.568 287.262C341.704 287.237 341.848 287.238 341.985 287.208C342.123 287.178 342.247 287.119 342.385 287.085C342.523 287.05 342.685 287.12 342.816 287.074C342.948 287.027 343.053 286.904 343.185 286.858C343.316 286.811 343.46 286.793 343.588 286.74C343.716 286.688 343.835 286.609 343.966 286.547C344.096 286.485 344.24 286.467 344.362 286.398C344.484 286.329 344.585 286.225 344.704 286.15C344.822 286.075 344.91 285.963 345.03 285.884C345.149 285.804 345.326 285.814 345.437 285.732C345.547 285.65 345.664 285.56 345.772 285.468C345.88 285.376 345.952 285.249 346.055 285.156C346.159 285.062 346.203 284.904 346.299 284.804C346.394 284.703 346.514 284.624 346.605 284.517C346.697 284.411 346.805 284.319 346.893 284.206C346.981 284.094 347.122 284.03 347.205 283.916C347.289 283.803 347.279 283.626 347.357 283.511C347.436 283.397 347.481 283.258 347.55 283.141C347.619 283.024 347.806 282.957 347.872 282.834C347.938 282.711 347.902 282.538 347.978 282.412C348.055 282.287 348.127 282.176 348.18 282.045C348.233 281.914 348.287 281.783 348.334 281.655C348.381 281.528 348.444 281.394 348.483 281.259C348.522 281.125 348.553 280.983 348.587 280.847C348.621 280.711 348.626 280.573 348.651 280.435C348.676 280.297 348.649 280.15 348.664 280.01C348.68 279.869 348.732 279.743 348.719 279.595C348.707 279.447 348.843 279.322 348.848 279.184C348.853 279.046 348.849 278.9 348.845 278.76C348.84 278.619 348.801 278.48 348.791 278.343C348.781 278.206 348.782 278.062 348.767 277.923C348.752 277.785 348.687 277.649 348.667 277.509C348.648 277.37 348.58 277.243 348.55 277.106C348.52 276.969 348.52 276.83 348.484 276.696C348.448 276.562 348.457 276.41 348.416 276.275C348.375 276.14 348.257 276.036 348.206 275.903C348.154 275.771 348.123 275.638 348.066 275.509C348.009 275.38 348.007 275.23 347.95 275.101C347.892 274.972 347.76 274.884 347.696 274.763C347.632 274.642 347.605 274.491 347.532 274.368C347.458 274.245 347.406 274.117 347.325 274.002C347.244 273.887 347.103 273.816 347.016 273.705C346.93 273.593 346.816 273.51 346.729 273.403C346.641 273.296 346.561 273.181 346.463 273.077C346.364 272.972 346.347 272.804 346.243 272.703C346.139 272.602 346.044 272.503 345.938 272.411C345.831 272.32 345.726 272.224 345.619 272.137C345.511 272.05 345.334 272.04 345.22 271.956C345.107 271.873 345.016 271.76 344.901 271.681C344.786 271.603 344.683 271.502 344.56 271.436C344.437 271.37 344.279 271.365 344.151 271.298C344.024 271.231 343.891 271.202 343.761 271.145C343.631 271.087 343.544 270.94 343.417 270.889C343.291 270.837 343.141 270.819 343.005 270.785C342.869 270.75 342.733 270.716 342.597 270.682C342.462 270.647 342.339 270.562 342.203 270.527C342.067 270.493 341.927 270.458 341.796 270.425C341.665 270.392 341.5 270.49 341.361 270.469C341.221 270.449 341.096 270.333 340.955 270.322C340.813 270.311 340.676 270.282 340.533 270.275C340.39 270.269 340.252 270.399 340.113 270.399C339.974 270.398 339.83 270.277 339.687 270.291C339.544 270.305 339.408 270.33 339.27 270.345C339.131 270.36 339.001 270.462 338.86 270.486L338.454 270.558C338.316 270.588 338.187 270.645 338.049 270.68C337.911 270.715 337.784 270.763 337.654 270.805C337.524 270.847 337.383 270.871 337.252 270.917C337.121 270.964 336.948 270.92 336.82 270.973C336.692 271.025 336.611 271.189 336.485 271.252C336.36 271.315 336.232 271.367 336.11 271.436C335.988 271.505 335.855 271.556 335.736 271.631C335.618 271.706 335.485 271.757 335.372 271.833C335.258 271.909 335.115 271.963 335.003 272.049C334.892 272.135 334.819 272.267 334.716 272.36C334.612 272.454 334.513 272.553 334.409 272.646C334.306 272.74 334.181 272.818 334.082 272.918C333.982 273.017 333.895 273.125 333.804 273.231C333.712 273.337 333.682 273.494 333.595 273.602C333.508 273.709 333.378 273.791 333.299 273.906C333.221 274.021 333.086 274.101 333.012 274.217C332.938 274.333 332.938 274.507 332.905 274.639C332.872 274.77 332.73 274.858 332.664 274.981C332.598 275.104 332.501 275.214 332.443 275.344C332.386 275.474 332.374 275.62 332.34 275.752C332.307 275.883 332.193 275.998 332.15 276.132C332.106 276.265 332.081 276.404 332.047 276.539C332.012 276.675 331.908 276.793 331.874 276.929C331.84 277.065 331.805 277.201 331.804 277.345C331.802 277.489 331.734 277.621 331.723 277.763C331.713 277.905 331.741 278.047 331.73 278.188C331.72 278.33 331.71 278.467 331.705 278.605C331.7 278.744 331.778 278.888 331.778 279.027C331.778 279.167 331.748 279.304 331.757 279.446C331.766 279.588 331.767 279.722 331.782 279.861C331.797 279.999 331.77 280.146 331.794 280.287C331.818 280.428 331.808 280.57 331.833 280.705C331.858 280.841 331.966 280.968 332.002 281.102C332.038 281.235 332.029 281.388 332.071 281.518C332.113 281.648 332.147 281.791 332.198 281.924C332.249 282.056 332.363 282.159 332.415 282.287C332.468 282.415 332.535 282.542 332.598 282.667C332.661 282.793 332.69 282.935 332.759 283.057C332.828 283.179 332.963 283.257 333.036 283.381C333.11 283.504 333.083 283.686 333.164 283.801C333.245 283.916 333.369 283.998 333.454 284.114C333.539 284.23 333.616 284.339 333.709 284.447L333.982 284.765C334.081 284.865 334.195 284.948 334.294 285.048C334.394 285.148 334.464 285.166 334.569 285.262Z" fill="#C096E2"/>
<path d="M342.349 276.07L342.337 276.117C342.494 276.119 342.651 276.111 342.807 276.091C342.965 276.076 343.141 276.15 343.299 276.115C343.451 276.068 343.6 276.012 343.745 275.949C343.888 275.878 344.026 275.798 344.159 275.709C344.302 275.644 344.441 275.569 344.574 275.485C344.706 275.399 344.831 275.304 344.95 275.201C345.076 275.103 345.195 274.996 345.309 274.883C345.41 274.759 345.391 274.556 345.474 274.427C345.556 274.298 345.715 274.204 345.781 274.061C345.842 273.911 345.894 273.758 345.936 273.602C345.995 273.451 346.043 273.297 346.082 273.14C346.126 272.985 346.158 272.826 346.177 272.666C346.188 272.425 346.101 272.418 346.118 272.153C346.135 271.888 346.149 271.912 346.161 271.666C346.173 271.42 346.098 271.421 346.109 271.179C346.12 270.938 346.129 270.94 346.143 270.689C346.156 270.439 346.203 270.451 346.205 270.207C346.206 269.963 346.266 269.963 346.285 269.729C346.305 269.495 346.198 269.483 346.209 269.242C346.22 269 346.31 269.003 346.328 268.773C346.346 268.543 346.329 268.529 346.343 268.279C346.356 268.028 346.24 268.034 346.248 267.786C346.255 267.539 346.308 267.548 346.319 267.306C346.33 267.065 346.435 267.066 346.437 266.838C346.44 266.609 346.457 266.599 346.471 266.348C346.484 266.097 346.418 266.105 346.429 265.864C346.44 265.623 346.41 265.62 346.425 265.365C346.44 265.11 346.487 265.121 346.515 264.89C346.544 264.658 346.486 264.648 346.502 264.388C346.518 264.128 346.49 264.141 346.503 263.89C346.517 263.639 346.485 263.646 346.5 263.391C346.514 263.136 346.515 263.151 346.529 262.9C346.542 262.649 346.561 262.654 346.572 262.413C346.583 262.171 346.574 262.169 346.587 261.918C346.601 261.668 346.648 261.679 346.645 261.435C346.642 261.19 346.646 261.191 346.66 260.94C346.673 260.689 346.588 260.693 346.605 260.428C346.622 260.163 346.665 260.189 346.676 259.948C346.687 259.706 346.668 259.702 346.677 259.45C346.686 259.198 346.709 259.204 346.72 258.962C346.709 258.804 346.687 258.647 346.655 258.492C346.672 258.328 346.675 258.162 346.665 257.997C346.616 257.846 346.558 257.699 346.492 257.555C346.448 257.403 346.394 257.255 346.331 257.11C346.248 256.975 346.157 256.844 346.061 256.718C345.952 256.605 345.838 256.498 345.718 256.398C345.614 256.283 345.501 256.176 345.38 256.078C345.264 255.979 345.14 255.888 345.011 255.806C344.888 255.709 344.759 255.62 344.625 255.539C344.481 255.459 344.333 255.388 344.18 255.327C344.033 255.259 343.88 255.202 343.724 255.157C343.563 255.157 343.402 255.168 343.243 255.19L343.266 255.097C343.103 255.09 342.951 255.241 342.794 255.251C342.63 255.236 342.465 255.23 342.301 255.232C342.144 255.26 341.989 255.299 341.837 255.349C341.689 255.404 341.545 255.469 341.405 255.544C341.267 255.625 341.136 255.717 341.012 255.818C340.872 255.895 340.738 255.983 340.612 256.081C340.512 256.206 340.42 256.338 340.338 256.475C340.215 256.581 340.099 256.695 339.992 256.816C339.909 256.95 339.882 257.117 339.809 257.268C339.726 257.411 339.652 257.559 339.588 257.711C339.537 257.864 339.497 258.02 339.469 258.179C339.47 258.338 339.48 258.497 339.499 258.655C339.492 258.897 339.438 258.894 339.446 259.14C339.454 259.386 339.495 259.381 339.482 259.647C339.47 259.913 339.373 259.884 339.364 260.116C339.356 260.348 339.303 260.359 339.293 260.596C339.283 260.833 339.43 260.845 339.419 261.086C339.408 261.327 339.299 261.325 339.301 261.554C339.302 261.784 339.324 261.795 339.309 262.055C339.293 262.315 339.247 262.298 339.223 262.531C339.199 262.765 339.349 262.782 339.338 263.024C339.327 263.265 339.317 263.267 339.304 263.513C339.292 263.76 339.245 263.748 339.247 263.997C339.249 264.247 339.301 264.24 339.289 264.481C339.278 264.723 339.263 264.724 339.251 264.97C339.239 265.216 339.111 265.208 339.104 265.431C339.098 265.654 339.087 265.676 339.08 265.923C339.072 266.17 339.192 266.171 339.181 266.412C339.17 266.653 339.081 266.651 339.063 266.88C339.045 267.11 339.047 267.12 339.033 267.371C339.02 267.622 339.032 267.615 339.018 267.866C339.005 268.116 339.017 268.109 339.003 268.36C338.99 268.611 338.981 268.604 338.969 268.85C338.957 269.096 338.932 269.095 338.921 269.336C338.91 269.577 338.994 269.583 338.977 269.848C338.96 270.113 338.995 270.092 338.98 270.347C338.965 270.603 338.919 270.591 338.904 270.826C338.889 271.062 338.947 271.071 338.936 271.332C338.925 271.594 338.934 271.576 338.921 271.827C338.907 272.078 338.86 272.066 338.863 272.311C338.841 272.473 338.83 272.637 338.83 272.8C338.864 272.956 338.909 273.108 338.963 273.257C339.008 273.408 339.066 273.554 339.137 273.695C339.177 273.844 339.228 273.991 339.291 274.132C339.357 274.275 339.434 274.413 339.52 274.544C339.607 274.675 339.704 274.8 339.81 274.916C339.905 275.045 340.009 275.166 340.122 275.279C340.242 275.379 340.441 275.359 340.574 275.463C340.707 275.566 340.78 275.734 340.923 275.8C341.071 275.864 341.224 275.919 341.379 275.965C341.542 275.985 341.705 275.997 341.869 275.998C342.027 276.035 342.187 276.059 342.349 276.07Z" fill="#C096E2"/>
<path d="M340.212 278.102L340.182 278.024C340.324 277.961 340.461 277.888 340.591 277.804C340.723 277.721 340.849 277.63 340.969 277.53C341.097 277.438 341.286 277.421 341.398 277.31C341.511 277.199 341.542 277.017 341.642 276.898C341.749 276.785 341.849 276.666 341.942 276.54C342.042 276.414 342.135 276.283 342.22 276.147C342.258 275.997 342.298 275.838 342.338 275.679C342.388 275.525 342.427 275.369 342.457 275.21C342.462 275.053 342.458 274.896 342.446 274.739C342.445 274.585 342.453 274.432 342.438 274.274C342.427 274.118 342.407 273.963 342.376 273.81C342.353 273.654 342.321 273.499 342.279 273.347C342.188 273.115 342.221 273.103 342.13 272.871C342.039 272.639 341.971 272.671 341.88 272.439L341.697 271.98C341.606 271.747 341.595 271.754 341.504 271.522C341.413 271.29 341.444 271.283 341.354 271.051C341.263 270.819 341.334 270.792 341.242 270.564C341.15 270.337 341.078 270.364 340.988 270.131C340.897 269.899 340.824 269.931 340.733 269.699C340.642 269.466 340.746 269.433 340.659 269.182C340.573 268.931 340.613 268.931 340.522 268.699C340.431 268.466 340.408 268.48 340.317 268.248C340.226 268.016 340.125 268.06 340.034 267.828C339.943 267.596 339.976 267.584 339.89 267.353C339.804 267.122 339.738 267.146 339.652 266.915C339.566 266.684 339.6 266.667 339.509 266.435L339.326 265.975C339.234 265.748 339.323 265.711 339.231 265.483C339.139 265.256 339.085 265.272 338.994 265.04C338.903 264.807 338.857 264.831 338.767 264.599C338.676 264.366 338.703 264.358 338.612 264.126C338.521 263.894 338.476 263.913 338.385 263.68C338.294 263.448 338.282 263.455 338.19 263.228C338.098 263 338.167 262.968 338.075 262.74C337.982 262.513 337.934 262.525 337.842 262.298C337.75 262.07 337.912 262.021 337.797 261.788C337.681 261.555 337.596 261.598 337.505 261.366C337.414 261.134 337.496 261.104 337.405 260.872C337.314 260.64 337.274 260.66 337.183 260.428C337.092 260.195 337.048 260.214 336.957 259.982C336.866 259.75 336.877 259.747 336.786 259.515C336.695 259.283 336.646 259.3 336.555 259.068C336.464 258.836 336.525 258.812 336.434 258.579C336.384 258.43 336.324 258.283 336.255 258.141C336.195 257.991 336.128 257.844 336.053 257.701C335.959 257.578 335.775 257.516 335.664 257.404C335.562 257.285 335.452 257.172 335.336 257.067C335.211 256.97 335.078 256.882 334.945 256.799C334.814 256.711 334.677 256.632 334.536 256.561C334.387 256.501 334.232 256.452 334.075 256.415C333.911 256.399 333.747 256.392 333.582 256.395C333.421 256.366 333.259 256.35 333.096 256.347C332.942 256.343 332.775 256.196 332.627 256.229C332.471 256.262 332.318 256.305 332.167 256.357C332.012 256.398 331.86 256.448 331.711 256.506C331.572 256.585 331.439 256.675 331.314 256.774C331.176 256.849 330.975 256.833 330.847 256.926C330.736 257.044 330.633 257.169 330.539 257.301C330.428 257.412 330.324 257.531 330.229 257.657C330.108 257.763 329.994 257.877 329.889 257.999C329.807 258.142 329.735 258.29 329.672 258.443C329.636 258.6 329.609 258.76 329.592 258.921C329.529 259.07 329.476 259.223 329.432 259.379C329.427 259.546 329.432 259.714 329.449 259.881C329.45 260.036 329.41 260.195 329.42 260.372C329.431 260.531 329.453 260.69 329.484 260.847C329.522 260.996 329.666 261.117 329.724 261.261C329.815 261.493 329.831 261.487 329.922 261.719C330.013 261.952 329.92 261.983 330.012 262.211C330.104 262.438 330.197 262.407 330.288 262.639C330.379 262.871 330.352 262.879 330.444 263.107C330.536 263.334 330.431 263.377 330.518 263.623L330.701 264.083C330.793 264.311 330.842 264.293 330.928 264.524C331.014 264.755 331.047 264.744 331.139 264.971C331.231 265.199 331.269 265.188 331.355 265.419C331.441 265.65 331.452 265.648 331.542 265.88C331.633 266.112 331.613 266.117 331.703 266.349C331.794 266.581 331.751 266.595 331.842 266.827C331.932 267.059 331.979 267.036 332.069 267.268L332.252 267.728C332.343 267.96 332.327 267.966 332.419 268.194C332.511 268.421 332.543 268.414 332.634 268.646C332.724 268.879 332.72 268.877 332.812 269.105C332.904 269.332 332.813 269.374 332.899 269.625C332.986 269.876 333.08 269.82 333.172 270.048C333.264 270.275 333.179 270.314 333.271 270.541C333.363 270.769 333.44 270.743 333.53 270.975C333.621 271.207 333.606 271.209 333.697 271.441C333.788 271.673 333.739 271.69 333.83 271.923C333.92 272.155 333.928 272.147 334.018 272.379C334.109 272.611 334.16 272.589 334.25 272.821C334.341 273.053 334.28 273.078 334.371 273.31C334.462 273.542 334.496 273.526 334.587 273.758C334.678 273.99 334.668 273.992 334.758 274.225C334.849 274.457 334.806 274.471 334.897 274.703C334.988 274.935 334.967 274.94 335.058 275.172C335.148 275.404 335.23 275.375 335.327 275.604C335.424 275.832 335.402 275.842 335.493 276.074C335.535 276.228 335.586 276.379 335.648 276.527C335.722 276.665 335.893 276.738 335.985 276.866C336.08 276.99 336.181 277.109 336.289 277.222C336.4 277.334 336.438 277.518 336.562 277.619C336.705 277.703 336.853 277.776 337.005 277.84C337.148 277.922 337.296 277.995 337.448 278.057C337.593 278.132 337.744 278.195 337.899 278.246C338.048 278.307 338.202 278.358 338.359 278.397C338.524 278.412 338.69 278.414 338.856 278.402C339.014 278.403 339.172 278.391 339.328 278.367C339.494 278.38 339.66 278.38 339.826 278.368C339.96 278.287 340.089 278.198 340.212 278.102Z" fill="#C096E2"/>
<path d="M337.407 283.212L337.483 283.346C337.677 283.23 337.78 282.997 337.946 282.855C338.122 282.727 338.287 282.584 338.438 282.426C338.59 282.261 338.725 282.082 338.842 281.89C338.917 281.681 338.972 281.464 339.005 281.244C339.055 281.03 339.083 280.812 339.09 280.593C339.133 280.375 339.153 280.153 339.152 279.931C339.126 279.709 339.079 279.491 339.013 279.278C338.954 279.058 338.872 278.846 338.769 278.643C338.614 278.37 338.539 278.411 338.398 278.141C338.257 277.871 338.307 277.829 338.141 277.578C337.976 277.327 337.992 277.301 337.838 277.003C337.684 276.705 337.694 276.723 337.544 276.431C337.393 276.139 337.355 276.174 337.181 275.896C337.007 275.618 337.015 275.625 336.86 275.352C336.705 275.078 336.625 275.118 336.488 274.849C336.352 274.581 336.381 274.543 336.222 274.284C336.063 274.025 335.986 274.055 335.849 273.786C335.713 273.518 335.807 273.442 335.652 273.168C335.496 272.895 335.451 272.918 335.286 272.643C335.121 272.367 335.155 272.351 335.001 272.073C334.847 271.795 334.759 271.847 334.601 271.568C334.515 271.367 334.412 271.175 334.293 270.992C334.156 270.811 334.006 270.642 333.843 270.485C333.648 270.368 333.443 270.267 333.23 270.186C333.021 270.111 332.804 270.056 332.584 270.023C332.376 269.948 332.161 269.894 331.942 269.861C331.721 269.817 331.496 269.796 331.271 269.796C331.05 269.825 330.874 270.05 330.657 270.139C330.44 270.229 330.184 270.155 329.992 270.266C329.818 270.413 329.658 270.576 329.515 270.753C329.329 270.877 329.155 271.018 328.995 271.175C328.862 271.355 328.749 271.548 328.655 271.752C328.566 271.957 328.498 272.17 328.45 272.388C328.4 272.603 328.371 272.823 328.364 273.044C328.345 273.262 328.349 273.481 328.373 273.699C328.418 273.913 328.485 274.122 328.575 274.322C328.656 274.521 328.754 274.713 328.869 274.895C329.024 275.168 328.901 275.242 329.056 275.515C329.211 275.788 329.157 275.825 329.317 276.079C329.477 276.334 329.581 276.295 329.737 276.569L330.052 277.116L330.355 277.691C330.511 277.965 330.412 278.02 330.572 278.294C330.732 278.569 330.871 278.489 331.027 278.762C331.182 279.036 331.147 279.057 331.302 279.33C331.457 279.603 331.421 279.629 331.577 279.898C331.734 280.167 331.744 280.164 331.903 280.443C332.062 280.723 332.023 280.738 332.183 281.012C332.343 281.287 332.343 281.287 332.503 281.561C332.663 281.836 332.745 281.787 332.905 282.061C333.009 282.247 333.132 282.422 333.272 282.582C333.398 282.764 333.543 282.932 333.703 283.085C333.882 283.216 334.074 283.327 334.276 283.419C334.475 283.513 334.684 283.587 334.898 283.64C335.106 283.715 335.321 283.769 335.54 283.802C335.763 283.778 335.983 283.731 336.197 283.664C336.41 283.638 336.619 283.589 336.822 283.518C337.028 283.438 337.224 283.335 337.407 283.212Z" fill="#C096E2"/>
<path d="M347.137 279.662C347.308 279.662 347.479 279.647 347.647 279.616C347.796 279.544 347.938 279.458 348.07 279.359C348.219 279.29 348.363 279.209 348.5 279.119C348.626 279.016 348.672 278.833 348.782 278.692C348.897 278.579 349.003 278.458 349.098 278.328C349.183 278.19 349.366 278.097 349.428 277.948C349.478 277.795 349.518 277.638 349.546 277.48C349.567 277.316 349.573 277.151 349.566 276.986C349.605 276.832 349.644 276.677 349.624 276.503C349.603 276.328 349.574 276.186 349.568 276.03C349.563 275.874 349.652 275.698 349.686 275.562C349.721 275.426 349.509 275.258 349.488 275.103C349.467 274.949 349.484 274.783 349.453 274.631C349.422 274.479 349.403 274.315 349.367 274.161C349.331 274.007 349.355 273.834 349.309 273.683C349.262 273.532 349.163 273.392 349.104 273.248C349.046 273.103 348.917 272.986 348.849 272.839C348.781 272.693 348.775 272.522 348.694 272.387C348.613 272.252 348.522 272.119 348.431 271.987C348.34 271.854 348.209 271.761 348.111 271.637C348.013 271.513 347.997 271.319 347.887 271.202C347.777 271.084 347.585 271.056 347.454 270.943C347.323 270.83 347.309 270.627 347.185 270.526C347.061 270.425 346.901 270.37 346.751 270.272C346.601 270.175 346.432 270.192 346.296 270.103C346.159 270.013 346.085 269.81 345.943 269.745C345.8 269.679 345.595 269.741 345.46 269.683C345.325 269.624 345.178 269.537 345.012 269.485C344.845 269.433 344.719 269.341 344.559 269.306C344.398 269.27 344.24 269.265 344.077 269.239C343.915 269.213 343.759 269.218 343.588 269.205C343.417 269.192 343.271 269.155 343.103 269.152C342.934 269.15 342.788 269.198 342.626 269.207C342.464 269.216 342.312 269.207 342.151 269.231C341.99 269.256 341.83 269.26 341.673 269.29C341.516 269.32 341.358 269.335 341.203 269.376C341.048 269.416 340.876 269.408 340.723 269.459C340.571 269.51 340.432 269.605 340.282 269.667C340.132 269.728 339.972 269.753 339.825 269.82C339.679 269.888 339.575 270.001 339.439 270.067C339.303 270.132 339.152 270.179 339.021 270.245L338.62 270.468C338.487 270.544 338.364 270.637 338.236 270.71C338.108 270.782 337.989 270.897 337.865 270.975C337.741 271.053 337.62 271.157 337.495 271.235C337.371 271.313 337.221 271.375 337.099 271.464C336.977 271.553 336.84 271.623 336.719 271.707C336.598 271.791 336.456 271.86 336.334 271.949C336.212 272.037 336.139 272.169 336.024 272.249C335.909 272.33 335.736 272.341 335.621 272.422C335.5 272.526 335.387 272.641 335.285 272.765C335.179 272.88 335.083 273.004 334.998 273.136C334.91 273.263 334.833 273.397 334.767 273.536C334.675 273.663 334.594 273.798 334.526 273.939C334.446 274.082 334.378 274.231 334.324 274.386C334.306 274.55 334.301 274.716 334.309 274.88C334.307 275.038 334.317 275.196 334.339 275.352C334.368 275.508 334.409 275.661 334.463 275.811C334.486 275.968 334.524 276.123 334.575 276.273C334.644 276.415 334.811 276.502 334.898 276.633C334.984 276.765 335.026 276.935 335.131 277.051C335.237 277.169 335.35 277.279 335.471 277.381C335.609 277.476 335.755 277.559 335.906 277.63C336.043 277.728 336.188 277.813 336.341 277.884C336.503 277.906 336.666 277.919 336.829 277.923C336.983 277.946 337.139 277.957 337.294 277.956C337.452 277.961 337.622 278.038 337.772 278.036C337.929 277.996 338.082 277.943 338.23 277.878C338.384 277.838 338.534 277.786 338.679 277.722C338.809 277.634 338.933 277.535 339.047 277.426C339.184 277.336 339.383 277.341 339.515 277.25C339.648 277.159 339.78 277.068 339.914 276.972C340.048 276.877 340.123 276.696 340.257 276.601C340.391 276.505 340.587 276.499 340.724 276.409C340.861 276.319 340.974 276.189 341.111 276.099C341.248 276.009 341.405 275.959 341.551 275.876C341.696 275.793 341.808 275.667 341.952 275.588C342.097 275.51 342.266 275.488 342.419 275.417C342.571 275.346 342.68 275.174 342.786 275.166C342.94 275.165 343.091 275.215 343.213 275.309C343.284 275.326 343.306 275.536 343.412 275.727C343.518 275.919 343.649 275.932 343.673 276.112C343.698 276.293 343.553 276.391 343.555 276.581C343.557 276.771 343.674 276.9 343.69 277.053C343.669 277.217 343.662 277.382 343.67 277.546C343.706 277.7 343.841 277.819 343.899 277.963C343.954 278.108 344.018 278.249 344.091 278.385C344.177 278.516 344.272 278.64 344.376 278.756C344.468 278.88 344.57 278.996 344.683 279.102C344.8 279.207 344.923 279.305 345.052 279.395C345.2 279.461 345.352 279.518 345.508 279.565C345.66 279.617 345.817 279.656 345.976 279.683C346.129 279.734 346.285 279.774 346.444 279.801C346.577 279.816 346.71 279.823 346.843 279.822C346.944 279.774 347.042 279.72 347.137 279.662Z" fill="#D2ADE6"/>
<path d="M346.868 271.171C346.988 271.271 347.052 271.451 347.164 271.559C347.276 271.667 347.391 271.766 347.502 271.879C347.613 271.991 347.752 272.071 347.852 272.191C347.951 272.311 348.002 272.463 348.094 272.591C348.187 272.719 348.329 272.805 348.416 272.936C348.502 273.068 348.642 273.168 348.716 273.306C348.791 273.444 348.73 273.648 348.8 273.786C348.87 273.923 349.017 274.03 349.075 274.174C349.134 274.318 349.131 274.487 349.183 274.635C349.236 274.782 349.321 274.919 349.363 275.069C349.405 275.219 349.478 275.362 349.509 275.514C349.541 275.666 349.468 275.837 349.489 276.007C349.511 276.177 349.639 276.304 349.655 276.457C349.671 276.611 349.62 276.773 349.626 276.948C349.631 277.124 349.727 277.258 349.728 277.413C349.729 277.567 349.615 277.723 349.61 277.881C349.605 278.039 349.572 278.19 349.552 278.365C349.533 278.539 349.506 278.667 349.487 278.822C349.468 278.976 349.467 279.136 349.434 279.307C349.401 279.478 349.457 279.631 349.415 279.8C349.372 279.969 349.31 280.097 349.264 280.26C349.217 280.423 349.103 280.538 349.052 280.705C349 280.871 348.976 281.005 348.905 281.166C348.835 281.328 348.752 281.436 348.691 281.58C348.63 281.724 348.672 281.914 348.601 282.056C348.531 282.197 348.365 282.28 348.29 282.421C348.214 282.561 348.128 282.684 348.051 282.814C347.973 282.944 348.008 283.162 347.933 283.282C347.857 283.403 347.758 283.542 347.666 283.668C347.574 283.795 347.477 283.925 347.377 284.044C347.277 284.163 347.153 284.261 347.048 284.379C346.944 284.497 346.828 284.618 346.715 284.734C346.601 284.849 346.42 284.894 346.303 285.003C346.186 285.113 346.102 285.267 345.978 285.365C345.853 285.463 345.696 285.533 345.568 285.625C345.44 285.717 345.346 285.873 345.213 285.964C345.081 286.055 344.921 286.174 344.786 286.255C344.644 286.189 344.534 285.992 344.405 285.91C344.276 285.827 344.123 285.784 343.997 285.692C343.87 285.6 343.73 285.525 343.617 285.422C343.503 285.318 343.405 285.194 343.299 285.082C343.192 284.971 343.061 284.878 342.962 284.758C342.863 284.639 342.746 284.529 342.658 284.403C342.57 284.276 342.503 284.129 342.427 283.996C342.351 283.862 342.254 283.733 342.184 283.596C342.114 283.458 342.102 283.291 342.037 283.15C341.973 283.009 341.872 282.879 341.812 282.739C341.753 282.6 341.819 282.397 341.767 282.23C341.714 282.062 341.529 281.985 341.476 281.842C341.422 281.699 341.388 281.536 341.341 281.39C341.293 281.243 341.328 281.063 341.281 280.916C341.233 280.77 341.095 280.645 341.047 280.499C341 280.352 341.052 280.166 341.013 280.022C340.975 279.878 340.937 279.713 340.904 279.566C340.872 279.418 340.764 279.271 340.742 279.121C340.72 278.971 340.732 278.805 340.716 278.651C340.7 278.498 340.665 278.34 340.654 278.187C340.643 278.035 340.698 277.875 340.707 277.702C340.689 277.546 340.68 277.39 340.681 277.233C340.719 277.083 340.663 276.909 340.701 276.739C340.766 276.588 340.842 276.44 340.926 276.298C340.965 276.141 341.014 275.987 341.073 275.837C341.16 275.706 341.255 275.58 341.357 275.46C341.441 275.327 341.484 275.173 341.587 275.02C341.691 274.867 341.778 274.779 341.883 274.656C341.989 274.533 342.059 274.396 342.172 274.285C342.284 274.174 342.481 274.164 342.598 274.054C342.716 273.944 342.786 273.803 342.907 273.699C343.028 273.595 343.116 273.463 343.241 273.364C343.365 273.266 343.561 273.281 343.694 273.19C343.826 273.099 343.896 272.942 344.032 272.857C344.168 272.771 344.339 272.765 344.47 272.678C344.602 272.592 344.729 272.504 344.863 272.424L345.26 272.175C345.394 272.099 345.483 271.942 345.618 271.862C345.753 271.781 345.931 271.786 346.07 271.707C346.21 271.627 346.355 271.584 346.494 271.51C346.632 271.435 346.744 271.249 346.868 271.171Z" fill="url(#paint0_linear_3690_11769)"/>
<defs>
<linearGradient id="paint0_linear_3690_11769" x1="337.812" y1="277.055" x2="322.771" y2="302.652" gradientUnits="userSpaceOnUse">
<stop offset="0.33" stop-color="#D2ADE6"/>
<stop offset="0.58" stop-color="#C096E2"/>
</linearGradient>
</defs>
</svg>